<?xml version="1.0" encoding="UTF-8"?>
<svg width="180px" height="37px" viewBox="0 0 180 37" version="1.1" xmlns="http://www.w3.org/2000/svg">
    <g stroke="none" stroke-width="1" fill="none" fill-rule="evenodd">
        <g transform="translate(-130.000000, -331.000000)" fill="#000000">
            <g transform="translate(130.000000, 331.000000)">
                <path d="M0,0 L60,0 L60,8.25 L34.5,8.25 L34.5,36.75 L25.5,36.75 L25.5,8.25 L0,8.25 L0,0 Z"></path>
                <path d="M67.5,0 L93,0 C104.54834,0 114,9.45166 114,21 C114,32.54834 104.54834,42 93,42 L67.5,42 L67.5,0 Z M76.5,8.25 L76.5,33.75 L93,33.75 C99.4934,33.75 104.75,28.4934 104.75,22 C104.75,15.5066 99.4934,10.25 93,10.25 L76.5,10.25 L76.5,8.25 Z"></path>
                <path d="M121.5,0 L180,0 L180,8.25 L154.5,8.25 L154.5,36.75 L145.5,36.75 L145.5,8.25 L121.5,8.25 L121.5,0 Z"></path>
            </g>
        </g>
    </g>
</svg>
